<svg
        width="104"
        height="104"
        viewBox="0 0 104 104"
        fill="none"
        xmlns="http://www.w3.org/2000/svg"
        class="fixed h-80 w-80 lg:h-96 lg:w-96 opacity-75 pointer-events-none -left-24 2xl:left-auto -top-28 "
>
        <path
                opacity="0.1"
                fill-rule="evenodd"
                clip-rule="evenodd"
                d="M104 52C104 80.7188 80.7188 104 52 104C23.2812 104 0 80.7188 0 52C0 23.2812 23.2812 0 52 0C80.7188 0 104 23.2812 104 52ZM69 52C69 61.3888 61.3888 69 52 69C42.6112 69 35 61.3888 35 52C35 42.6112 42.6112 35 52 35C61.3888 35 69 42.6112 69 52ZM76 52C76 65.2548 65.2548 76 52 76C38.7452 76 28 65.2548 28 52H8C8 76.3005 27.6995 96 52 96C76.3005 96 96 76.3005 96 52H76Z"
                fill="currentColor"
        />
</svg>
